<svg width="24" height="24" viewBox="0 0 24 24" fill="none" xmlns="http://www.w3.org/2000/svg">
<path d="M16.3694 5.78003C16.4528 5.77985 16.5355 5.79618 16.6126 5.82808C16.6897 5.85998 16.7598 5.90681 16.8187 5.96589L22.404 11.5511C22.5226 11.6706 22.5892 11.8321 22.5892 12.0005C22.5892 12.1689 22.5226 12.3304 22.404 12.4499L16.8187 18.0351C16.6995 18.1543 16.5379 18.2212 16.3694 18.2212C16.2008 18.2212 16.0392 18.1543 15.92 18.0351C15.8008 17.9159 15.7339 17.7543 15.7339 17.5857C15.7339 17.4172 15.8008 17.2556 15.92 17.1364L21.0559 12.0005L15.92 6.86461C15.8311 6.77577 15.7705 6.66255 15.746 6.53928C15.7214 6.41601 15.734 6.28823 15.7821 6.17211C15.8302 6.05599 15.9117 5.95676 16.0162 5.88696C16.1208 5.81717 16.2437 5.77996 16.3694 5.78003Z" fill="white"/>
<path d="M2.05023 11.3653H21.1586C21.3271 11.3653 21.4887 11.4323 21.6078 11.5514C21.7269 11.6705 21.7939 11.8321 21.7939 12.0006C21.7939 12.169 21.7269 12.3306 21.6078 12.4497C21.4887 12.5689 21.3271 12.6358 21.1586 12.6358H2.05023C1.88176 12.6358 1.72019 12.5689 1.60106 12.4497C1.48193 12.3306 1.41501 12.169 1.41501 12.0006C1.41501 11.8321 1.48193 11.6705 1.60106 11.5514C1.72019 11.4323 1.88176 11.3653 2.05023 11.3653Z" fill="white"/>
</svg>
